<mxfile host="Electron" modified="2024-04-09T07:04:35.768Z" agent="Mozilla/5.0 (Windows NT 10.0; Win64; x64) AppleWebKit/537.36 (KHTML, like Gecko) draw.io/24.1.0 Chrome/120.0.6099.109 Electron/28.1.0 Safari/537.36" etag="bVUaDdF5DeLm2eDEqh_G" version="24.1.0" type="device">
  <diagram id="lURAAuLJLIfmOtUlgGhc" name="第 1 页">
    <mxGraphModel dx="1418" dy="828" grid="1" gridSize="10" guides="1" tooltips="1" connect="1" arrows="1" fold="1" page="1" pageScale="1" pageWidth="3300" pageHeight="4681" math="0" shadow="0">
      <root>
        <mxCell id="0" />
        <mxCell id="bYSo5eWAFih9EuLPBIU_-41" value="未命名图层" style="" parent="0" />
        <mxCell id="1" parent="0" />
        <mxCell id="mPQFTUtHzDtWvEEzUeKg-48" value="" style="edgeStyle=orthogonalEdgeStyle;orthogonalLoop=1;jettySize=auto;html=1;labelBackgroundColor=none;strokeColor=#E07A5F;fontColor=default;" parent="1" source="14" target="mPQFTUtHzDtWvEEzUeKg-47" edge="1">
          <mxGeometry relative="1" as="geometry" />
        </mxCell>
        <mxCell id="14" value="router" style="html=1;rounded=0;labelBackgroundColor=none;fillColor=#F2CC8F;strokeColor=#E07A5F;fontColor=#393C56;" parent="1" vertex="1">
          <mxGeometry x="280" y="50" width="90" height="40" as="geometry" />
        </mxCell>
        <mxCell id="bYSo5eWAFih9EuLPBIU_-38" style="edgeStyle=orthogonalEdgeStyle;rounded=0;orthogonalLoop=1;jettySize=auto;html=1;entryX=0;entryY=0.5;entryDx=0;entryDy=0;strokeColor=#E07A5F;fontColor=#393C56;fillColor=#F2CC8F;" edge="1" parent="1" source="15" target="bYSo5eWAFih9EuLPBIU_-37">
          <mxGeometry relative="1" as="geometry" />
        </mxCell>
        <mxCell id="15" value="ScopeObserver" style="html=1;rounded=0;labelBackgroundColor=none;fillColor=#F2CC8F;strokeColor=#E07A5F;fontColor=#393C56;" parent="1" vertex="1">
          <mxGeometry x="110" y="150" width="110" height="50" as="geometry" />
        </mxCell>
        <mxCell id="mPQFTUtHzDtWvEEzUeKg-39" value="" style="edgeStyle=orthogonalEdgeStyle;orthogonalLoop=1;jettySize=auto;html=1;labelBackgroundColor=none;strokeColor=#E07A5F;fontColor=default;" parent="1" source="mPQFTUtHzDtWvEEzUeKg-19" target="mPQFTUtHzDtWvEEzUeKg-33" edge="1">
          <mxGeometry relative="1" as="geometry" />
        </mxCell>
        <mxCell id="bYSo5eWAFih9EuLPBIU_-34" style="edgeStyle=orthogonalEdgeStyle;rounded=0;orthogonalLoop=1;jettySize=auto;html=1;exitX=0.75;exitY=0;exitDx=0;exitDy=0;entryX=0.75;entryY=1;entryDx=0;entryDy=0;strokeColor=#E07A5F;fontColor=#393C56;fillColor=#F2CC8F;" edge="1" parent="1" source="mPQFTUtHzDtWvEEzUeKg-19" target="15">
          <mxGeometry relative="1" as="geometry" />
        </mxCell>
        <mxCell id="mPQFTUtHzDtWvEEzUeKg-19" value="ValueListObserver" style="html=1;rounded=0;labelBackgroundColor=none;fillColor=#F2CC8F;strokeColor=#E07A5F;fontColor=#393C56;" parent="1" vertex="1">
          <mxGeometry x="110" y="250" width="110" height="50" as="geometry" />
        </mxCell>
        <mxCell id="mPQFTUtHzDtWvEEzUeKg-25" value="" style="endArrow=block;endFill=1;html=1;edgeStyle=orthogonalEdgeStyle;align=left;verticalAlign=top;rounded=0;exitX=0.25;exitY=1;exitDx=0;exitDy=0;entryX=0.5;entryY=0;entryDx=0;entryDy=0;curved=0;labelBackgroundColor=none;strokeColor=#E07A5F;fontColor=default;" parent="1" source="14" target="15" edge="1">
          <mxGeometry x="-1" relative="1" as="geometry">
            <mxPoint x="380" y="120" as="sourcePoint" />
            <mxPoint x="540" y="120" as="targetPoint" />
          </mxGeometry>
        </mxCell>
        <mxCell id="mPQFTUtHzDtWvEEzUeKg-26" value="1" style="edgeLabel;resizable=0;html=1;align=left;verticalAlign=bottom;rounded=0;labelBackgroundColor=none;fontColor=#393C56;" parent="mPQFTUtHzDtWvEEzUeKg-25" connectable="0" vertex="1">
          <mxGeometry x="-1" relative="1" as="geometry" />
        </mxCell>
        <mxCell id="mPQFTUtHzDtWvEEzUeKg-31" value="" style="endArrow=block;endFill=1;html=1;edgeStyle=orthogonalEdgeStyle;align=left;verticalAlign=top;rounded=0;exitX=0.5;exitY=1;exitDx=0;exitDy=0;entryX=0.5;entryY=0;entryDx=0;entryDy=0;labelBackgroundColor=none;strokeColor=#E07A5F;fontColor=default;" parent="1" source="15" target="mPQFTUtHzDtWvEEzUeKg-19" edge="1">
          <mxGeometry x="-1" relative="1" as="geometry">
            <mxPoint x="570" y="420" as="sourcePoint" />
            <mxPoint x="730" y="420" as="targetPoint" />
          </mxGeometry>
        </mxCell>
        <mxCell id="mPQFTUtHzDtWvEEzUeKg-32" value="1" style="edgeLabel;resizable=0;html=1;align=left;verticalAlign=bottom;rounded=0;labelBackgroundColor=none;fontColor=#393C56;" parent="mPQFTUtHzDtWvEEzUeKg-31" connectable="0" vertex="1">
          <mxGeometry x="-1" relative="1" as="geometry" />
        </mxCell>
        <mxCell id="bYSo5eWAFih9EuLPBIU_-29" style="edgeStyle=orthogonalEdgeStyle;rounded=0;orthogonalLoop=1;jettySize=auto;html=1;exitX=0.75;exitY=0;exitDx=0;exitDy=0;entryX=0.75;entryY=1;entryDx=0;entryDy=0;strokeColor=#E07A5F;fontColor=#393C56;fillColor=#F2CC8F;" edge="1" parent="1" source="mPQFTUtHzDtWvEEzUeKg-33" target="mPQFTUtHzDtWvEEzUeKg-19">
          <mxGeometry relative="1" as="geometry" />
        </mxCell>
        <mxCell id="mPQFTUtHzDtWvEEzUeKg-33" value="TokenListObserver" style="html=1;rounded=0;labelBackgroundColor=none;fillColor=#F2CC8F;strokeColor=#E07A5F;fontColor=#393C56;" parent="1" vertex="1">
          <mxGeometry x="110" y="370" width="110" height="50" as="geometry" />
        </mxCell>
        <mxCell id="mPQFTUtHzDtWvEEzUeKg-44" value="" style="edgeStyle=orthogonalEdgeStyle;orthogonalLoop=1;jettySize=auto;html=1;labelBackgroundColor=none;strokeColor=#E07A5F;fontColor=default;" parent="1" source="mPQFTUtHzDtWvEEzUeKg-34" target="mPQFTUtHzDtWvEEzUeKg-42" edge="1">
          <mxGeometry relative="1" as="geometry" />
        </mxCell>
        <mxCell id="bYSo5eWAFih9EuLPBIU_-27" style="edgeStyle=orthogonalEdgeStyle;rounded=0;orthogonalLoop=1;jettySize=auto;html=1;exitX=0.75;exitY=0;exitDx=0;exitDy=0;entryX=0.75;entryY=1;entryDx=0;entryDy=0;strokeColor=#E07A5F;fontColor=#393C56;fillColor=#F2CC8F;" edge="1" parent="1" source="mPQFTUtHzDtWvEEzUeKg-34" target="mPQFTUtHzDtWvEEzUeKg-33">
          <mxGeometry relative="1" as="geometry" />
        </mxCell>
        <mxCell id="mPQFTUtHzDtWvEEzUeKg-34" value="AttributeObserver" style="html=1;rounded=0;labelBackgroundColor=none;fillColor=#F2CC8F;strokeColor=#E07A5F;fontColor=#393C56;" parent="1" vertex="1">
          <mxGeometry x="110" y="470" width="110" height="50" as="geometry" />
        </mxCell>
        <mxCell id="mPQFTUtHzDtWvEEzUeKg-35" value="&lt;div&gt;&lt;br&gt;&lt;/div&gt;&lt;div&gt;&lt;br&gt;&lt;/div&gt;" style="endArrow=block;endFill=1;html=1;edgeStyle=orthogonalEdgeStyle;align=left;verticalAlign=top;rounded=0;exitX=0.5;exitY=1;exitDx=0;exitDy=0;entryX=0.5;entryY=0;entryDx=0;entryDy=0;labelBackgroundColor=none;strokeColor=#E07A5F;fontColor=default;" parent="1" source="mPQFTUtHzDtWvEEzUeKg-33" target="mPQFTUtHzDtWvEEzUeKg-34" edge="1">
          <mxGeometry x="-1" relative="1" as="geometry">
            <mxPoint x="570" y="640" as="sourcePoint" />
            <mxPoint x="730" y="640" as="targetPoint" />
          </mxGeometry>
        </mxCell>
        <mxCell id="mPQFTUtHzDtWvEEzUeKg-36" value="1" style="edgeLabel;resizable=0;html=1;align=left;verticalAlign=bottom;rounded=0;labelBackgroundColor=none;fontColor=#393C56;" parent="mPQFTUtHzDtWvEEzUeKg-35" connectable="0" vertex="1">
          <mxGeometry x="-1" relative="1" as="geometry" />
        </mxCell>
        <mxCell id="bYSo5eWAFih9EuLPBIU_-25" style="edgeStyle=orthogonalEdgeStyle;rounded=0;orthogonalLoop=1;jettySize=auto;html=1;exitX=0.75;exitY=0;exitDx=0;exitDy=0;entryX=0.75;entryY=1;entryDx=0;entryDy=0;strokeColor=#E07A5F;fontColor=#393C56;fillColor=#F2CC8F;" edge="1" parent="1" source="mPQFTUtHzDtWvEEzUeKg-42" target="mPQFTUtHzDtWvEEzUeKg-34">
          <mxGeometry relative="1" as="geometry" />
        </mxCell>
        <mxCell id="mPQFTUtHzDtWvEEzUeKg-42" value="ElementObserver" style="html=1;rounded=0;labelBackgroundColor=none;fillColor=#F2CC8F;strokeColor=#E07A5F;fontColor=#393C56;" parent="1" vertex="1">
          <mxGeometry x="110" y="600" width="110" height="50" as="geometry" />
        </mxCell>
        <mxCell id="mPQFTUtHzDtWvEEzUeKg-73" value="" style="edgeStyle=orthogonalEdgeStyle;rounded=0;orthogonalLoop=1;jettySize=auto;html=1;strokeColor=#E07A5F;fontColor=default;fillColor=#F2CC8F;labelBackgroundColor=none;" parent="1" source="mPQFTUtHzDtWvEEzUeKg-47" target="mPQFTUtHzDtWvEEzUeKg-72" edge="1">
          <mxGeometry relative="1" as="geometry" />
        </mxCell>
        <mxCell id="mPQFTUtHzDtWvEEzUeKg-47" value="Module" style="html=1;whiteSpace=wrap;labelBackgroundColor=none;fillColor=#F2CC8F;strokeColor=#E07A5F;fontColor=#393C56;" parent="1" vertex="1">
          <mxGeometry x="560" y="45" width="110" height="50" as="geometry" />
        </mxCell>
        <mxCell id="mPQFTUtHzDtWvEEzUeKg-67" style="edgeStyle=orthogonalEdgeStyle;rounded=0;orthogonalLoop=1;jettySize=auto;html=1;strokeColor=#E07A5F;fontColor=default;fillColor=#F2CC8F;labelBackgroundColor=none;" parent="1" source="mPQFTUtHzDtWvEEzUeKg-58" target="mPQFTUtHzDtWvEEzUeKg-61" edge="1">
          <mxGeometry relative="1" as="geometry" />
        </mxCell>
        <mxCell id="mPQFTUtHzDtWvEEzUeKg-68" style="edgeStyle=orthogonalEdgeStyle;rounded=0;orthogonalLoop=1;jettySize=auto;html=1;strokeColor=#E07A5F;fontColor=default;fillColor=#F2CC8F;labelBackgroundColor=none;" parent="1" source="mPQFTUtHzDtWvEEzUeKg-58" target="mPQFTUtHzDtWvEEzUeKg-62" edge="1">
          <mxGeometry relative="1" as="geometry" />
        </mxCell>
        <mxCell id="mPQFTUtHzDtWvEEzUeKg-70" style="edgeStyle=orthogonalEdgeStyle;rounded=0;orthogonalLoop=1;jettySize=auto;html=1;strokeColor=#E07A5F;fontColor=default;fillColor=#F2CC8F;labelBackgroundColor=none;" parent="1" source="mPQFTUtHzDtWvEEzUeKg-58" target="mPQFTUtHzDtWvEEzUeKg-60" edge="1">
          <mxGeometry relative="1" as="geometry" />
        </mxCell>
        <mxCell id="mPQFTUtHzDtWvEEzUeKg-58" value="Context" style="html=1;whiteSpace=wrap;labelBackgroundColor=none;fillColor=#F2CC8F;strokeColor=#E07A5F;fontColor=#393C56;" parent="1" vertex="1">
          <mxGeometry x="1140" y="60" width="110" height="50" as="geometry" />
        </mxCell>
        <mxCell id="mPQFTUtHzDtWvEEzUeKg-75" value="" style="edgeStyle=orthogonalEdgeStyle;rounded=0;orthogonalLoop=1;jettySize=auto;html=1;strokeColor=#E07A5F;fontColor=default;fillColor=#F2CC8F;labelBackgroundColor=none;" parent="1" source="mPQFTUtHzDtWvEEzUeKg-60" target="mPQFTUtHzDtWvEEzUeKg-74" edge="1">
          <mxGeometry relative="1" as="geometry" />
        </mxCell>
        <mxCell id="mPQFTUtHzDtWvEEzUeKg-60" value="BindingObserver" style="html=1;whiteSpace=wrap;labelBackgroundColor=none;fillColor=#F2CC8F;strokeColor=#E07A5F;fontColor=#393C56;" parent="1" vertex="1">
          <mxGeometry x="830" y="180" width="110" height="40" as="geometry" />
        </mxCell>
        <mxCell id="mPQFTUtHzDtWvEEzUeKg-61" value="ValueObserver" style="html=1;whiteSpace=wrap;labelBackgroundColor=none;fillColor=#F2CC8F;strokeColor=#E07A5F;fontColor=#393C56;" parent="1" vertex="1">
          <mxGeometry x="1050" y="180" width="110" height="40" as="geometry" />
        </mxCell>
        <mxCell id="mPQFTUtHzDtWvEEzUeKg-62" value="TargetObserver" style="html=1;whiteSpace=wrap;labelBackgroundColor=none;fillColor=#F2CC8F;strokeColor=#E07A5F;fontColor=#393C56;" parent="1" vertex="1">
          <mxGeometry x="1210" y="180" width="110" height="40" as="geometry" />
        </mxCell>
        <mxCell id="mPQFTUtHzDtWvEEzUeKg-64" value="OutletObserver" style="html=1;whiteSpace=wrap;labelBackgroundColor=none;fillColor=#F2CC8F;strokeColor=#E07A5F;fontColor=#393C56;" parent="1" vertex="1">
          <mxGeometry x="1370" y="180" width="110" height="40" as="geometry" />
        </mxCell>
        <mxCell id="mPQFTUtHzDtWvEEzUeKg-71" style="edgeStyle=orthogonalEdgeStyle;rounded=0;orthogonalLoop=1;jettySize=auto;html=1;entryX=0.4;entryY=0.05;entryDx=0;entryDy=0;entryPerimeter=0;strokeColor=#E07A5F;fontColor=default;fillColor=#F2CC8F;labelBackgroundColor=none;" parent="1" source="mPQFTUtHzDtWvEEzUeKg-58" target="mPQFTUtHzDtWvEEzUeKg-64" edge="1">
          <mxGeometry relative="1" as="geometry" />
        </mxCell>
        <mxCell id="mPQFTUtHzDtWvEEzUeKg-72" value="Context" style="html=1;whiteSpace=wrap;labelBackgroundColor=none;fillColor=#F2CC8F;strokeColor=#E07A5F;fontColor=#393C56;" parent="1" vertex="1">
          <mxGeometry x="650" y="170" width="110" height="50" as="geometry" />
        </mxCell>
        <mxCell id="mPQFTUtHzDtWvEEzUeKg-77" value="" style="edgeStyle=orthogonalEdgeStyle;rounded=0;orthogonalLoop=1;jettySize=auto;html=1;strokeColor=#E07A5F;fontColor=default;fillColor=#F2CC8F;labelBackgroundColor=none;" parent="1" source="mPQFTUtHzDtWvEEzUeKg-74" target="mPQFTUtHzDtWvEEzUeKg-76" edge="1">
          <mxGeometry relative="1" as="geometry" />
        </mxCell>
        <mxCell id="mPQFTUtHzDtWvEEzUeKg-74" value="ValueListObserver" style="html=1;rounded=0;labelBackgroundColor=none;fillColor=#F2CC8F;strokeColor=#E07A5F;fontColor=#393C56;" parent="1" vertex="1">
          <mxGeometry x="780" y="270" width="110" height="50" as="geometry" />
        </mxCell>
        <mxCell id="bYSo5eWAFih9EuLPBIU_-32" value="" style="edgeStyle=orthogonalEdgeStyle;rounded=0;orthogonalLoop=1;jettySize=auto;html=1;strokeColor=#E07A5F;fontColor=#393C56;fillColor=#F2CC8F;" edge="1" parent="1" source="mPQFTUtHzDtWvEEzUeKg-76" target="bYSo5eWAFih9EuLPBIU_-31">
          <mxGeometry relative="1" as="geometry" />
        </mxCell>
        <mxCell id="mPQFTUtHzDtWvEEzUeKg-76" value="TokenListObserver" style="html=1;rounded=0;labelBackgroundColor=none;fillColor=#F2CC8F;strokeColor=#E07A5F;fontColor=#393C56;" parent="1" vertex="1">
          <mxGeometry x="780" y="360" width="110" height="50" as="geometry" />
        </mxCell>
        <mxCell id="mPQFTUtHzDtWvEEzUeKg-79" value="data-action" style="text;html=1;align=center;verticalAlign=middle;resizable=0;points=[];autosize=1;strokeColor=none;fillColor=none;fontColor=#393C56;labelBackgroundColor=none;" parent="1" vertex="1">
          <mxGeometry x="700" y="280" width="80" height="30" as="geometry" />
        </mxCell>
        <mxCell id="mPQFTUtHzDtWvEEzUeKg-80" value="ElementObserver" style="html=1;rounded=0;labelBackgroundColor=none;fillColor=#F2CC8F;strokeColor=#E07A5F;fontColor=#393C56;" parent="1" vertex="1">
          <mxGeometry x="780" y="530" width="110" height="50" as="geometry" />
        </mxCell>
        <mxCell id="bYSo5eWAFih9EuLPBIU_-23" value="" style="edgeStyle=orthogonalEdgeStyle;rounded=0;orthogonalLoop=1;jettySize=auto;html=1;strokeColor=#E07A5F;fontColor=#393C56;fillColor=#F2CC8F;" edge="1" parent="1" source="bYSo5eWAFih9EuLPBIU_-19" target="bYSo5eWAFih9EuLPBIU_-22">
          <mxGeometry relative="1" as="geometry" />
        </mxCell>
        <mxCell id="bYSo5eWAFih9EuLPBIU_-19" value="Dispatcher" style="html=1;whiteSpace=wrap;labelBackgroundColor=none;fillColor=#F2CC8F;strokeColor=#E07A5F;fontColor=#393C56;" vertex="1" parent="1">
          <mxGeometry x="930" y="270" width="110" height="40" as="geometry" />
        </mxCell>
        <mxCell id="bYSo5eWAFih9EuLPBIU_-21" style="edgeStyle=orthogonalEdgeStyle;rounded=0;orthogonalLoop=1;jettySize=auto;html=1;entryX=0.418;entryY=0.025;entryDx=0;entryDy=0;entryPerimeter=0;strokeColor=#E07A5F;fontColor=#393C56;fillColor=#F2CC8F;" edge="1" parent="1" source="mPQFTUtHzDtWvEEzUeKg-60" target="bYSo5eWAFih9EuLPBIU_-19">
          <mxGeometry relative="1" as="geometry" />
        </mxCell>
        <mxCell id="bYSo5eWAFih9EuLPBIU_-22" value="EventListener" style="html=1;whiteSpace=wrap;labelBackgroundColor=none;fillColor=#F2CC8F;strokeColor=#E07A5F;fontColor=#393C56;" vertex="1" parent="1">
          <mxGeometry x="930" y="360" width="110" height="40" as="geometry" />
        </mxCell>
        <mxCell id="bYSo5eWAFih9EuLPBIU_-26" value="匹配到dom" style="text;html=1;align=center;verticalAlign=middle;resizable=0;points=[];autosize=1;strokeColor=none;fillColor=none;fontColor=#393C56;" vertex="1" parent="1">
          <mxGeometry x="190" y="560" width="80" height="30" as="geometry" />
        </mxCell>
        <mxCell id="bYSo5eWAFih9EuLPBIU_-28" value="筛选出有controller的dom" style="text;html=1;align=center;verticalAlign=middle;resizable=0;points=[];autosize=1;strokeColor=none;fillColor=none;fontColor=#393C56;" vertex="1" parent="1">
          <mxGeometry x="190" y="430" width="160" height="30" as="geometry" />
        </mxCell>
        <mxCell id="bYSo5eWAFih9EuLPBIU_-30" value="提取Tokens" style="text;html=1;align=center;verticalAlign=middle;resizable=0;points=[];autosize=1;strokeColor=none;fillColor=none;fontColor=#393C56;" vertex="1" parent="1">
          <mxGeometry x="185" y="320" width="90" height="30" as="geometry" />
        </mxCell>
        <mxCell id="bYSo5eWAFih9EuLPBIU_-33" value="" style="edgeStyle=orthogonalEdgeStyle;rounded=0;orthogonalLoop=1;jettySize=auto;html=1;strokeColor=#E07A5F;fontColor=#393C56;fillColor=#F2CC8F;" edge="1" parent="1" source="bYSo5eWAFih9EuLPBIU_-31" target="mPQFTUtHzDtWvEEzUeKg-80">
          <mxGeometry relative="1" as="geometry" />
        </mxCell>
        <mxCell id="bYSo5eWAFih9EuLPBIU_-31" value="AttributeObserver" style="html=1;rounded=0;labelBackgroundColor=none;fillColor=#F2CC8F;strokeColor=#E07A5F;fontColor=#393C56;" vertex="1" parent="1">
          <mxGeometry x="780" y="440" width="110" height="50" as="geometry" />
        </mxCell>
        <mxCell id="bYSo5eWAFih9EuLPBIU_-35" value="遍历每一个token" style="text;html=1;align=center;verticalAlign=middle;resizable=0;points=[];autosize=1;strokeColor=none;fillColor=none;fontColor=#393C56;" vertex="1" parent="1">
          <mxGeometry x="190" y="210" width="110" height="30" as="geometry" />
        </mxCell>
        <mxCell id="bYSo5eWAFih9EuLPBIU_-37" value="" style="whiteSpace=wrap;html=1;strokeColor=#E07A5F;fontColor=#393C56;fillColor=#F2CC8F;" vertex="1" parent="1">
          <mxGeometry x="330" y="150" width="90" height="50" as="geometry" />
        </mxCell>
        <mxCell id="bYSo5eWAFih9EuLPBIU_-39" value="生成scope" style="text;html=1;align=center;verticalAlign=middle;resizable=0;points=[];autosize=1;strokeColor=none;fillColor=none;fontColor=#393C56;" vertex="1" parent="1">
          <mxGeometry x="220" y="148" width="80" height="30" as="geometry" />
        </mxCell>
      </root>
    </mxGraphModel>
  </diagram>
</mxfile>
